<?xml version="1.0" standalone="no"?>
<!DOCTYPE svg PUBLIC "-//W3C//DTD SVG 20010904//EN"
 "http://www.w3.org/TR/2001/REC-SVG-20010904/DTD/svg10.dtd">
<svg version="1.0" xmlns="http://www.w3.org/2000/svg"
 width="280.000000pt" height="108.000000pt" viewBox="0 0 280.000000 108.000000"
 preserveAspectRatio="xMidYMid meet">
<metadata>
Created by potrace 1.10, written by Peter Selinger 2001-2011
</metadata>
<g transform="translate(0.000000,108.000000) scale(0.100000,-0.100000)"
fill="#000000" stroke="none">
<path d="M901 776 c-18 -21 -9 -110 13 -134 25 -29 19 -34 -16 -12 -33 20 -83
25 -125 14 -54 -15 -5 -101 70 -127 l42 -14 -33 -7 c-64 -15 -131 -106 -88
-122 14 -5 52 -7 97 -5 31 1 94 59 94 86 0 13 -12 26 -35 37 -27 13 -30 17
-14 18 33 0 58 34 45 59 -13 23 -15 52 -3 35 14 -21 45 -25 63 -8 32 29 20
112 -24 166 -21 26 -70 34 -86 14z m49 -11 c39 -20 62 -66 58 -117 -4 -51 -17
-56 -56 -23 -35 29 -54 83 -45 126 6 34 5 33 43 14z m-73 -142 c42 -19 79 -73
60 -85 -7 -4 -33 -8 -59 -8 -39 0 -52 5 -82 34 -20 18 -36 40 -36 49 0 29 66
35 117 10z m58 -153 c10 -15 -14 -49 -48 -70 -33 -21 -92 -26 -116 -11 -19 12
1 47 42 71 34 21 111 27 122 10z"/>
<path d="M1095 768 c-33 -26 -55 -75 -55 -122 0 -38 25 -70 46 -62 8 3 21 9
29 12 8 3 15 1 15 -5 0 -6 -4 -11 -10 -11 -14 0 -13 -43 2 -58 17 -17 93 -15
128 3 67 35 93 109 43 121 -16 3 -32 7 -38 8 -20 5 -81 -16 -102 -37 -28 -25
-30 -14 -3 15 40 43 34 158 -8 158 -11 0 -32 -10 -47 -22z m63 -45 c3 -46 0
-54 -31 -87 -42 -44 -63 -46 -69 -6 -6 41 16 100 48 128 36 32 49 24 52 -35z
m149 -96 c10 -11 -29 -67 -57 -82 -31 -16 -115 -21 -124 -7 -9 16 34 73 67 88
29 13 101 13 114 1z"/>
<path d="M485 691 c-3 -2 -5 -15 -5 -28 0 -12 -4 -23 -9 -23 -5 0 -5 -15 -1
-36 11 -46 1 -36 -26 29 -22 51 -23 52 -66 52 l-43 0 -3 -165 c-4 -211 -3
-212 51 -208 l42 3 5 60 c5 54 7 57 15 30 4 -16 17 -44 28 -63 17 -29 24 -33
56 -30 l36 3 3 182 c2 169 1 183 -16 192 -18 10 -59 11 -67 2z m-40 -108 c22
-54 42 -102 45 -106 4 -4 5 40 2 98 l-5 105 31 0 c42 0 43 -10 40 -200 l-3
-155 -27 -3 c-22 -3 -30 2 -37 20 -5 13 -26 61 -45 108 l-36 85 0 -107 0 -108
-30 0 -30 0 0 180 0 180 28 0 c27 0 31 -6 67 -97z"/>
<path d="M1790 692 c-14 -2 -29 -8 -35 -13 -5 -5 -8 -54 -7 -108 2 -66 -1
-102 -9 -106 -7 -5 -8 -10 -1 -14 5 -3 12 -22 13 -41 2 -21 16 -48 33 -67 26
-29 35 -33 80 -33 102 0 125 42 124 225 0 72 -4 137 -8 146 -10 18 -79 14 -82
-5 0 -6 -1 -63 -2 -127 -1 -97 -4 -118 -19 -133 -31 -32 -32 -25 -36 220 -1
55 -8 63 -51 56z m40 -152 c0 -132 1 -140 21 -151 17 -9 25 -8 38 5 13 13 17
43 19 151 l4 135 29 0 29 0 0 -142 c0 -124 -3 -147 -20 -175 -34 -56 -121 -57
-162 -3 -16 22 -20 49 -24 163 -3 75 -2 142 1 147 3 6 19 10 36 10 l29 0 0
-140z"/>
<path d="M2019 688 c-16 -6 -20 -15 -17 -40 2 -27 8 -34 29 -38 l27 -5 1 -129
c1 -163 2 -168 49 -164 l37 3 3 148 c3 147 3 147 26 147 32 0 48 22 40 54 -7
28 -10 29 -117 30 -31 1 -67 -2 -78 -6z m181 -38 c0 -27 -3 -30 -30 -30 l-30
0 -1 -77 c0 -43 0 -111 1 -150 l1 -73 -30 0 -31 0 0 150 0 150 -30 0 c-27 0
-30 3 -30 30 l0 30 90 0 90 0 0 -30z"/>
<path d="M2380 686 c-6 -6 -10 -38 -10 -73 0 -60 -1 -63 -24 -63 -21 0 -24 4
-24 48 0 96 2 92 -41 92 -22 0 -43 -5 -46 -10 -8 -13 -8 -346 0 -360 3 -5 24
-10 46 -10 43 0 39 -11 43 110 1 29 5 34 25 34 23 0 24 -3 25 -69 l1 -70 42
-3 c38 -3 42 -1 47 25 7 35 7 207 -1 290 -5 61 -5 61 -39 65 -19 2 -39 -1 -44
-6z m-70 -81 l0 -75 40 0 40 0 -2 73 -3 72 33 3 32 3 0 -180 0 -181 -30 0 -30
0 0 75 0 75 -40 0 -40 0 0 -75 0 -75 -30 0 -30 0 0 180 0 180 30 0 30 0 0 -75z"/>
<path d="M1566 673 c-4 -10 -12 -40 -18 -68 -5 -27 -14 -66 -18 -85 -31 -142
-40 -192 -35 -200 3 -6 22 -10 41 -10 27 0 37 5 46 25 6 14 20 25 30 25 10 0
24 -11 30 -25 9 -19 19 -25 45 -25 55 0 55 1 -10 280 l-22 95 -41 3 c-32 2
-43 -1 -48 -15z m113 -155 c42 -205 41 -192 10 -196 -22 -3 -29 2 -37 25 -8
24 -15 29 -43 28 -27 -1 -34 -6 -39 -25 -4 -18 -14 -26 -33 -28 -35 -4 -35 -1
8 191 19 86 35 159 35 162 0 3 15 5 33 5 l32 0 34 -162z"/>
<path d="M1602 488 c-7 -26 -12 -48 -12 -50 0 -2 9 -4 20 -5 21 -2 24 14 11
72 -7 29 -7 29 -19 -17z"/>
<path d="M1131 484 c-19 -13 -22 -22 -17 -47 5 -25 4 -29 -6 -19 -32 32 -67
-1 -68 -63 0 -49 28 -98 72 -125 29 -18 34 -18 48 -4 19 19 20 125 1 148 -9
11 -10 16 -2 16 6 0 11 -4 11 -10 0 -6 3 -9 8 -8 4 1 23 -1 42 -5 44 -9 94 4
98 26 8 41 -75 107 -135 107 -16 0 -39 -7 -52 -16z m122 -23 c15 -10 35 -28
44 -41 22 -31 3 -42 -61 -37 -42 4 -55 10 -84 42 -27 29 -31 39 -21 46 24 15
93 10 122 -10z m-108 -101 c17 -32 20 -97 6 -119 -8 -12 -13 -12 -35 2 -46 31
-69 99 -52 154 7 22 9 22 36 8 17 -9 36 -29 45 -45z"/>
<path d="M946 409 c-35 -28 -56 -70 -56 -114 0 -73 33 -94 84 -54 55 43 76
138 38 172 -24 22 -34 21 -66 -4z m58 -5 c20 -53 -8 -140 -54 -164 -26 -14
-36 -8 -44 30 -7 40 16 98 52 127 32 27 38 28 46 7z"/>
</g>
</svg>
